<svg xmlns="http://www.w3.org/2000/svg" viewBox="-0.5 -0.5 16 16" id="Arrow-Button-Down--Streamline-Ultimate.svg" height="16" width="16"><desc>Arrow Button Down Streamline Icon: https://streamlinehq.com</desc><path d="m0.15625 4.50625 6.875 7.79375a0.6625000000000001 0.6625000000000001 0 0 0 0.9625 0l6.875 -7.79375a0.625 0.625 0 0 0 0.13125 -0.45625 0.625 0.625 0 0 0 -0.22499999999999998 -0.43124999999999997l-1.15625 -0.96875a0.625 0.625 0 0 0 -0.4625 -0.15 0.625 0.625 0 0 0 -0.43124999999999997 0.21875l-5.10625 5.90625a0.16875 0.16875 0 0 1 -0.2375 0L2.275 2.71875A0.625 0.625 0 0 0 1.875 2.5a0.625 0.625 0 0 0 -0.4625 0.14375000000000002L0.22499999999999998 3.61875a0.625 0.625 0 0 0 -0.22499999999999998 0.43124999999999997 0.625 0.625 0 0 0 0.15625 0.45625Z" fill="#282927" stroke-width="1"></path></svg>