<svg viewBox="-0.5 -0.5 16 16" fill="none" xmlns="http://www.w3.org/2000/svg" id="Bell--Streamline-Iconoir.svg" height="16" width="16"><desc>Bell Streamline Icon: https://streamlinehq.com</desc><path d="M11.603000000000002 5.039375000000001c0 -1.1606874999999999 -0.43225 -2.273875 -1.20175 -3.0946249999999997 -0.7694375 -0.8208125 -1.8130625 -1.281875 -2.90125 -1.281875 -1.0881875 0 -2.1318124999999997 0.46106250000000004 -2.90125 1.281875C3.8293125 2.7655000000000003 3.3970000000000002 3.8786875 3.3970000000000002 5.039375000000001c0 5.106000000000001 -2.0515 6.5648125 -2.0515 6.5648125h12.309000000000001s-2.0515 -1.4588124999999998 -2.0515 -6.5648125Z" stroke="currentColor" stroke-linecap="round" stroke-linejoin="round" stroke-width="1"></path><path d="M8.6830625 13.655687499999999c-0.12025 0.20725 -0.29275 0.3793125 -0.5004375 0.498875 -0.207625 0.1195625 -0.443 0.18256250000000002 -0.682625 0.18256250000000002 -0.239625 0 -0.475 -0.063 -0.682625 -0.18256250000000002 -0.2075625 -0.1195625 -0.38018749999999996 -0.291625 -0.500375 -0.498875" stroke="currentColor" stroke-linecap="round" stroke-linejoin="round" stroke-width="1"></path></svg>