<svg xmlns="http://www.w3.org/2000/svg" fill="none" viewBox="-0.5 -0.5 16 16" id="Cog--Streamline-Ultimate.svg" height="16" width="16"><desc>Cog Streamline Icon: https://streamlinehq.com</desc><path fill="#e3e3e3" d="M14.0625 6.5625h-1.404375a7.375 7.375 0 0 0 -0.625 -1.8262500000000002l0.993125 -0.9925a0.625 0.625 0 0 0 0 -0.8837499999999999l-0.88625 -0.8837499999999999a0.625 0.625 0 0 0 -0.8837499999999999 0l-0.99375 0.993125a7.355625 7.355625 0 0 0 -1.825 -0.625V0.9375a0.625 0.625 0 0 0 -0.625 -0.625h-0.625a0.625 0.625 0 0 0 -0.625 0.625v1.4056250000000001c-0.6331249999999999 0.1275 -1.2468750000000002 0.3375 -1.8256249999999998 0.625l-0.99375 -0.991875a0.625 0.625 0 0 0 -0.8837499999999999 0L1.975 2.8606249999999998a0.625 0.625 0 0 0 0 0.8837499999999999L2.96875 4.7375a7.3875 7.3875 0 0 0 -0.625 1.8256249999999998H0.9375a0.625 0.625 0 0 0 -0.625 0.625v0.625a0.625 0.625 0 0 0 0.625 0.625h1.40375c0.1275 0.6331249999999999 0.3375 1.2468750000000002 0.625 1.8256249999999998l-0.99375 0.99375a0.625 0.625 0 0 0 0 0.8837499999999999l0.8868750000000001 0.8837499999999999a0.625 0.625 0 0 0 0.8837499999999999 0l0.993125 -0.99375a7.375 7.375 0 0 0 1.8262500000000002 0.625v1.40625a0.625 0.625 0 0 0 0.625 0.625h0.625a0.625 0.625 0 0 0 0.625 -0.625v-1.4031250000000002a7.378125 7.378125 0 0 0 1.825 -0.625l0.994375 0.993125a0.625 0.625 0 0 0 0.8837499999999999 0l0.8837499999999999 -0.8837499999999999a0.625 0.625 0 0 0 0 -0.8837499999999999l-0.993125 -0.99375c0.28750000000000003 -0.57875 0.49750000000000005 -1.1925 0.625 -1.8256249999999998h1.40625a0.625 0.625 0 0 0 0.625 -0.625v-0.625a0.624375 0.624375 0 0 0 -0.625 -0.6281249999999999Zm-6.5625 3.75a2.8125 2.8125 0 1 1 0 -5.625 2.8125 2.8125 0 0 1 0 5.625Z" stroke-width="1"></path><path fill="#ffffff" d="M2.34125 8.4375c0.1275 0.6331249999999999 0.3375 1.2468750000000002 0.625 1.8256249999999998l-0.99375 0.99375a0.625 0.625 0 0 0 0 0.8837499999999999l0.44187499999999996 0.44187499999999996 3.09375 -3.09375a2.8125 2.8125 0 0 1 3.9781250000000004 -3.9781250000000004l3.0931249999999997 -3.0931249999999997 -0.44187499999999996 -0.44187499999999996a0.625 0.625 0 0 0 -0.8837499999999999 0l-0.9912500000000001 0.99375a7.355625 7.355625 0 0 0 -1.825 -0.625V0.9375a0.625 0.625 0 0 0 -0.625 -0.625h-0.625a0.625 0.625 0 0 0 -0.625 0.625v1.4056250000000001c-0.6331249999999999 0.1275 -1.2468750000000002 0.3375 -1.8256249999999998 0.625l-0.99375 -0.991875a0.625 0.625 0 0 0 -0.8837499999999999 0L1.975 2.8606249999999998a0.625 0.625 0 0 0 0 0.8837499999999999L2.96875 4.7375a7.3875 7.3875 0 0 0 -0.625 1.8256249999999998H0.9375a0.625 0.625 0 0 0 -0.625 0.625v0.625a0.625 0.625 0 0 0 0.625 0.625l1.40375 -0.000625Z" stroke-width="1"></path><path stroke="#191919" stroke-linecap="round" stroke-linejoin="round" d="M14.0625 6.5625h-1.404375a7.375 7.375 0 0 0 -0.625 -1.8262500000000002l0.993125 -0.9925a0.625 0.625 0 0 0 0 -0.8837499999999999l-0.88625 -0.8837499999999999a0.625 0.625 0 0 0 -0.8837499999999999 0l-0.99375 0.993125a7.355625 7.355625 0 0 0 -1.825 -0.625V0.9375a0.625 0.625 0 0 0 -0.625 -0.625h-0.625a0.625 0.625 0 0 0 -0.625 0.625v1.4056250000000001c-0.6331249999999999 0.1275 -1.2468750000000002 0.3375 -1.8256249999999998 0.625l-0.99375 -0.991875a0.625 0.625 0 0 0 -0.8837499999999999 0L1.975 2.8606249999999998a0.625 0.625 0 0 0 0 0.8837499999999999L2.96875 4.7375a7.3875 7.3875 0 0 0 -0.625 1.8256249999999998H0.9375a0.625 0.625 0 0 0 -0.625 0.625v0.625a0.625 0.625 0 0 0 0.625 0.625h1.40375c0.1275 0.6331249999999999 0.3375 1.2468750000000002 0.625 1.8256249999999998l-0.99375 0.99375a0.625 0.625 0 0 0 0 0.8837499999999999l0.8868750000000001 0.8837499999999999a0.625 0.625 0 0 0 0.8837499999999999 0l0.993125 -0.99375a7.375 7.375 0 0 0 1.8262500000000002 0.625v1.40625a0.625 0.625 0 0 0 0.625 0.625h0.625a0.625 0.625 0 0 0 0.625 -0.625v-1.4031250000000002a7.378125 7.378125 0 0 0 1.825 -0.625l0.994375 0.993125a0.625 0.625 0 0 0 0.8837499999999999 0l0.8837499999999999 -0.8837499999999999a0.625 0.625 0 0 0 0 -0.8837499999999999l-0.993125 -0.99375c0.28750000000000003 -0.57875 0.49750000000000005 -1.1925 0.625 -1.8256249999999998h1.40625a0.625 0.625 0 0 0 0.625 -0.625v-0.625a0.624375 0.624375 0 0 0 -0.625 -0.6281249999999999Zm-6.5625 3.75a2.8125 2.8125 0 1 1 0 -5.625 2.8125 2.8125 0 0 1 0 5.625Z" stroke-width="1"></path></svg>