<svg xmlns="http://www.w3.org/2000/svg" fill="none" viewBox="0 0 16 16" id="Delete-Square--Streamline-Core-Remix.svg" height="16" width="16"><desc>Delete Square Streamline Icon: https://streamlinehq.com</desc><g id="Interface Essential/Add Remove Delete/delete-square--button-remove-buttons-add-square-delete-cross-x-mathematics-multiply-math"><path id="Union" fill="#282927" fill-rule="evenodd" d="m13.714285714285714 1.857142857142857 -11.428571428571427 0c-0.23669714285714283 0 -0.42857142857142855 0.19187428571428572 -0.42857142857142855 0.42857142857142855l0 11.428571428571427c0 0.23668571428571428 0.19187428571428572 0.42857142857142855 0.42857142857142855 0.42857142857142855l11.428571428571427 0c0.23668571428571428 0 0.42857142857142855 -0.19188571428571427 0.42857142857142855 -0.42857142857142855l0 -11.428571428571427c0 -0.23669714285714283 -0.19188571428571427 -0.42857142857142855 -0.42857142857142855 -0.42857142857142855ZM2.2857142857142856 0.42857142857142855h11.428571428571427c1.0257142857142856 0 1.857142857142857 0.8314742857142856 1.857142857142857 1.857142857142857l0 11.428571428571427c0 1.0257142857142856 -0.8314285714285714 1.857142857142857 -1.857142857142857 1.857142857142857l-11.428571428571427 0c-1.0256685714285714 0 -1.857142857142857 -0.8314285714285714 -1.857142857142857 -1.857142857142857V2.2857142857142856C0.42857142857142855 1.2600457142857142 1.2600457142857142 0.42857142857142855 2.2857142857142856 0.42857142857142855Zm9.177485714285714 4.108194285714285c0.3347428571428571 0.3347314285714285 0.3347428571428571 0.8774514285714284 0 1.212182857142857L9.212182857142857 8l2.2510171428571426 2.2510514285714285c0.3347428571428571 0.3347314285714285 0.3347428571428571 0.8774514285714284 0 1.2121485714285714 -0.33469714285714286 0.3347428571428571 -0.8774171428571428 0.3347428571428571 -1.2121485714285714 0L8 9.212182857142857 5.7489485714285715 11.4632c-0.3347314285714285 0.3347428571428571 -0.8774514285714284 0.3347428571428571 -1.212182857142857 0 -0.3347314285714285 -0.33469714285714286 -0.3347314285714285 -0.8774171428571428 0 -1.2121485714285714L6.787817142857142 8 4.536765714285714 5.7489485714285715c-0.3347314285714285 -0.3347314285714285 -0.3347314285714285 -0.8774514285714284 0 -1.212182857142857s0.8774514285714284 -0.3347314285714285 1.212182857142857 0L8 6.787817142857142l2.2510514285714285 -2.2510514285714285c0.3347314285714285 -0.3347314285714285 0.8774514285714284 -0.3347314285714285 1.2121485714285714 0Z" clip-rule="evenodd" stroke-width="1"></path></g></svg>