<svg xmlns="http://www.w3.org/2000/svg" fill="none" viewBox="-0.5 -0.5 16 16" id="Wallet--Streamline-Platinum.svg" height="16" width="16"><desc>Wallet Streamline Icon: https://streamlinehq.com</desc><g id="wallet"><path id="Vector" stroke="#000000" d="M0.3125 2.1875v10.625c2.5 1.40625 9.6875 1.25 13.125 1.25V10.625M0.3125 2.1875c2.5 1.5625 9.6875 1.25 13.125 1.25V6.875M0.3125 2.1875c2.5 -1.5625 9.6875 -1.25 11.25 -1.25V2.5m-0.544375 4.671875A4.253125 4.253125 0 0 0 9.375 8.75a4.25375 4.25375 0 0 0 1.643125 1.578125c0.469375 0.25125000000000003 1.009375 0.296875 1.541875 0.296875H14.6875v-3.75h-2.1275c-0.5325 0 -1.0725 0.045625 -1.541875 0.296875Z" stroke-width="1"></path></g></svg>